<?xml version="1.0" encoding="utf-8"?>
<!-- Generator: Adobe Illustrator 24.3.0, SVG Export Plug-In . SVG Version: 6.00 Build 0)  -->
<svg version="1.1" id="Слой_1" xmlns="http://www.w3.org/2000/svg" xmlns:xlink="http://www.w3.org/1999/xlink" x="0px" y="0px"
	 viewBox="0 0 128 128" style="enable-background:new 0 0 128 128;" xml:space="preserve">
<style type="text/css">
	.st0{fill:#FFB5F7;}
	.st1{fill:#FF7CFC;}
	.st2{fill:#F83DFF;}
	.st3{fill:#E500FF;}
	.st4{fill:#B700CC;}
	.st5{fill:#9C00AD;}
</style>
<g>
	<ellipse class="st0" cx="64.5" cy="65" rx="52.5" ry="52"/>
</g>
<path class="st1" d="M116,75c-4.06,9.23-14.59,12.41-20,14c-22.32,6.55-37.61-4.98-43,2c-5.21,6.74,4.69,23.13,1,25
	c-0.4,0.21-1.61-0.19-4-1c-3.3-1.11-5.55-2.07-10-4c-4.32-1.87-4.99-2.19-6-3c-2.29-1.84-3.44-3.95-4-5
	C18.18,80.86,12.06,69.79,12,64c-0.04-4.49,0.38-20.91,13-35c15.09-16.85,35.67-17.03,39-17c3.37,0.03,19.82,0.49,34,13
	c1.59,1.4,6.3,9.7,16,26c0.52,0.88,1.28,2.16,2,4C118.57,61.56,118.46,69.42,116,75z"/>
<path class="st2" d="M117,62c-1.68,9.63-12.28,16.32-20,19c-24.72,8.58-46.32-14.64-56-6c-8.79,7.84,2.17,33.1-3,35
	c-0.53,0.19-1.86,0.38-7-5c-6.54-6.84-18.96-20.1-19-41c-0.01-4.32,0.2-20.08,12-34c15.23-17.97,37.1-18.04,40-18
	c20.96,0.29,34.31,13.3,39.29,18.97c0.19,0.21,0.85,0.96,1.71,2.03C107.86,36.56,119.02,50.45,117,62z"/>
<path class="st3" d="M117,56c-0.58,9.61-15.47,18.83-29,21c-25.25,4.05-42.3-18.25-51-11c-6.13,5.11-6.04,21.36-6,25
	c0.05,4.64,0.77,12.57-1,13c-0.44,0.11-0.96-0.26-2-1c0,0-1.84-1.31-3-3C11.84,80.78,12,64,12,64c0.1-5.22,0.65-21.21,13-35
	c15.07-16.83,35.71-17.02,39-17c0,0,21.82,0.19,40,19c2.24,2.31,7.65,8.02,11,17C116.42,51.81,117.14,53.72,117,56z"/>
<path class="st4" d="M115,49c0.24,8.15-13.53,17.89-27,20c-25.94,4.05-41.12-21.69-53-15c-12.73,7.17-8.28,44.05-11,44
	c-0.35-0.01-0.9-0.67-2-2c0,0-0.89-1.57-2-3c-0.96-1.23-8.08-13.06-8-29c0.02-4.62,0.34-20.24,12-34c15.17-17.91,37.15-18.03,40-18
	c0,0,20.86,0.26,36,15c5.13,4.99,9.29,10.92,10,12C113.29,44.03,114.93,46.54,115,49z"/>
<path class="st5" d="M109,36c1.18,1.77,1.83,3.44,2,4c1.69,5.75-11,20.04-25,23c-25.05,5.3-42.73-27.58-56-21
	c-13.76,6.82-8.22,49-11,49c-0.38,0-1.25-2-3-6c-0.62-1.42-1.26-2.92-2-5c-0.46-1.28-1.53-4.33-2-8c-0.24-1.86-0.05-2.03,0-8
	c0.05-5.59-0.1-5.44,0-7c0.1-1.47,0.43-4.67,3-11c0.92-2.26,3.84-9.46,8-15c8.56-11.41,24.82-19.07,41-19c10.4,0.04,18.17,3.55,26,7
	c4.74,2.09,6.89,3.93,8,5c2.42,2.34,1.93,2.96,5,6C105.71,32.68,107.19,33.29,109,36z"/>
</svg>
